<?xml version="1.0" standalone="no"?>
<!DOCTYPE svg PUBLIC "-//W3C//DTD SVG 20010904//EN"
 "http://www.w3.org/TR/2001/REC-SVG-20010904/DTD/svg10.dtd">
<svg version="1.0" xmlns="http://www.w3.org/2000/svg"
 width="1155.000000pt" height="1155.000000pt" viewBox="0 0 1155.000000 1155.000000"
 preserveAspectRatio="xMidYMid meet">

<g transform="translate(0.000000,1155.000000) scale(0.100000,-0.100000)"
fill="#000000" stroke="none">
<path d="M700 9625 l0 -1225 1225 0 1225 0 0 1225 0 1225 -1225 0 -1225 0 0
-1225z m2080 0 l0 -855 -855 0 -855 0 0 855 0 855 855 0 855 0 0 -855z"/>
<path d="M1400 9625 l0 -525 525 0 525 0 0 525 0 525 -525 0 -525 0 0 -525z"/>
<path d="M3850 10675 l0 -175 -175 0 -175 0 0 -175 0 -175 525 0 525 0 0 -350
0 -350 -175 0 -175 0 0 175 0 175 -175 0 -175 0 0 -175 0 -175 175 0 175 0 0
-175 0 -175 -350 0 -350 0 0 -525 0 -525 -700 0 -700 0 0 -525 0 -525 175 0
175 0 0 -175 0 -175 -525 0 -525 0 0 350 0 350 175 0 175 0 0 175 0 175 -525
0 -525 0 0 -350 0 -350 175 0 175 0 0 -350 0 -350 -175 0 -175 0 0 -175 0
-175 175 0 175 0 0 -175 0 -175 -175 0 -175 0 0 -525 0 -525 175 0 175 0 0
350 0 350 175 0 175 0 0 -175 0 -175 175 0 175 0 0 -350 0 -350 175 0 175 0 0
-350 0 -350 700 0 700 0 0 -700 0 -700 175 0 175 0 0 -350 0 -350 175 0 175 0
0 175 0 175 175 0 175 0 0 -350 0 -350 175 0 175 0 0 -175 0 -175 700 0 700 0
0 175 0 175 175 0 175 0 0 -175 0 -175 175 0 175 0 0 175 0 175 350 0 350 0 0
-175 0 -175 350 0 350 0 0 175 0 175 -175 0 -175 0 0 175 0 175 175 0 175 0 0
175 0 175 -525 0 -525 0 0 175 0 175 700 0 700 0 0 -175 0 -175 175 0 175 0 0
175 0 175 175 0 175 0 0 175 0 175 175 0 175 0 0 175 0 175 -175 0 -175 0 0
350 0 350 175 0 175 0 0 -175 0 -175 350 0 350 0 0 -175 0 -175 -175 0 -175 0
0 -1050 0 -1050 175 0 175 0 0 175 0 175 175 0 175 0 0 350 0 350 -175 0 -175
0 0 175 0 175 175 0 175 0 0 175 0 175 -175 0 -175 0 0 175 0 175 175 0 175 0
0 350 0 350 -175 0 -175 0 0 350 0 350 175 0 175 0 0 350 0 350 -175 0 -175 0
0 175 0 175 175 0 175 0 0 1225 0 1225 -175 0 -175 0 0 175 0 175 -175 0 -175
0 0 -175 0 -175 -525 0 -525 0 0 175 0 175 -350 0 -350 0 0 -350 0 -350 -175
0 -175 0 0 700 0 700 -175 0 -175 0 0 175 0 175 -175 0 -175 0 0 175 0 175
350 0 350 0 0 525 0 525 -175 0 -175 0 0 175 0 175 -350 0 -350 0 0 -175 0
-175 -175 0 -175 0 0 175 0 175 -350 0 -350 0 0 -175 0 -175 -175 0 -175 0 0
175 0 175 -350 0 -350 0 0 -175 0 -175 -350 0 -350 0 0 175 0 175 -175 0 -175
0 0 -175z m1750 -700 l0 -525 175 0 175 0 0 -175 0 -175 175 0 175 0 0 525 0
525 -175 0 -175 0 0 175 0 175 175 0 175 0 0 -175 0 -175 175 0 175 0 0 -175
0 -175 350 0 350 0 0 -175 0 -175 -175 0 -175 0 0 -525 0 -525 -175 0 -175 0
0 350 0 350 -175 0 -175 0 0 -350 0 -350 -175 0 -175 0 0 -175 0 -175 175 0
175 0 0 -175 0 -175 175 0 175 0 0 175 0 175 175 0 175 0 0 -175 0 -175 175 0
175 0 0 -175 0 -175 175 0 175 0 0 -175 0 -175 -175 0 -175 0 0 -175 0 -175
525 0 525 0 0 350 0 350 175 0 175 0 0 175 0 175 175 0 175 0 0 -175 0 -175
175 0 175 0 0 -175 0 -175 -175 0 -175 0 0 175 0 175 -175 0 -175 0 0 -525 0
-525 175 0 175 0 0 175 0 175 175 0 175 0 0 -175 0 -175 175 0 175 0 0 525 0
525 350 0 350 0 0 -175 0 -175 -175 0 -175 0 0 -175 0 -175 175 0 175 0 0
-700 0 -700 -175 0 -175 0 0 -175 0 -175 175 0 175 0 0 -350 0 -350 -175 0
-175 0 0 -350 0 -350 -175 0 -175 0 0 525 0 525 -175 0 -175 0 0 -350 0 -350
-875 0 -875 0 0 -350 0 -350 -525 0 -525 0 0 -175 0 -175 175 0 175 0 0 -350
0 -350 -175 0 -175 0 0 -175 0 -175 -175 0 -175 0 0 350 0 350 -175 0 -175 0
0 -175 0 -175 -175 0 -175 0 0 350 0 350 -175 0 -175 0 0 -350 0 -350 -525 0
-525 0 0 175 0 175 -175 0 -175 0 0 175 0 175 175 0 175 0 0 350 0 350 -350 0
-350 0 0 175 0 175 175 0 175 0 0 175 0 175 -175 0 -175 0 0 175 0 175 -350 0
-350 0 0 175 0 175 175 0 175 0 0 175 0 175 -525 0 -525 0 0 -175 0 -175 -175
0 -175 0 0 175 0 175 -175 0 -175 0 0 350 0 350 175 0 175 0 0 -175 0 -175
175 0 175 0 0 350 0 350 175 0 175 0 0 175 0 175 175 0 175 0 0 175 0 175 175
0 175 0 0 -175 0 -175 -175 0 -175 0 0 -175 0 -175 525 0 525 0 0 -350 0 -350
333 0 c230 -1 327 -4 315 -11 -38 -22 -5 -79 36 -63 9 4 23 1 31 -6 8 -6 19
-9 24 -6 5 4 13 1 17 -5 4 -8 3 -9 -4 -5 -7 4 -12 2 -12 -3 0 -6 -16 -11 -35
-11 -31 0 -35 -3 -35 -25 0 -22 -4 -25 -40 -25 -22 0 -40 -3 -40 -7 0 -3 13
-27 30 -52 40 -62 89 -94 148 -96 51 -1 122 -27 122 -44 0 -6 -9 -11 -20 -11
-24 0 -25 -9 -5 -36 21 -28 18 -34 -15 -34 -16 0 -30 -3 -29 -7 0 -5 25 -28
54 -53 58 -49 65 -68 35 -95 -11 -10 -20 -23 -20 -28 0 -11 102 -4 134 9 15 6
17 4 11 -15 -15 -47 46 -71 67 -26 8 19 19 25 41 25 29 0 29 -1 14 -18 -10
-10 -17 -26 -17 -35 0 -15 -21 -17 -220 -17 l-220 0 0 -175 0 -175 26 0 25 0
-21 -30 -21 -30 27 0 c15 0 35 7 44 15 22 20 98 37 193 42 l77 5 0 -176 0
-176 -175 0 -175 0 0 -175 0 -175 -175 0 -175 0 0 -175 0 -175 175 0 175 0 0
-175 0 -175 175 0 175 0 0 175 0 175 175 0 175 0 0 175 0 175 350 0 350 0 0
175 0 175 -175 0 -175 0 0 175 0 175 -175 0 -175 0 0 53 0 52 73 0 c77 0 92 6
241 98 55 34 127 51 125 30 0 -5 -43 -35 -94 -68 -100 -63 -122 -95 -67 -95
19 0 68 27 147 81 106 72 121 80 159 77 45 -3 46 -5 31 -95 -7 -37 -5 -44 20
-67 15 -14 31 -40 35 -58 l7 -33 11 25 c6 14 11 19 11 13 1 -10 88 -13 404
-13 l402 0 -6 -97 c-3 -54 -9 -107 -14 -118 -7 -17 -4 -16 18 5 14 14 43 66
65 115 l39 90 72 3 71 3 0 174 0 175 -152 1 -153 0 -24 30 c-27 35 -24 44 12
28 18 -8 33 -8 54 -1 28 10 28 10 3 11 -59 3 -42 16 22 18 65 1 81 -8 33 -20
-17 -4 -16 -5 4 -6 36 -2 111 38 111 58 0 10 11 27 25 39 27 24 31 42 13 60
-8 8 -8 15 1 26 23 28 3 36 -84 31 -47 -2 -85 -2 -85 0 0 11 81 44 135 55 33
7 65 15 72 17 10 4 13 -32 13 -171 l0 -176 350 0 350 0 0 -175 0 -175 175 0
175 0 0 175 0 175 175 0 175 0 0 350 0 350 -175 0 -175 0 0 175 0 175 -175 0
-175 0 0 -175 0 -175 -326 0 -326 0 29 24 c34 28 49 72 58 169 8 71 4 77 -33
51 -21 -14 -23 -14 -34 10 -9 21 -8 29 5 44 10 10 17 26 17 35 0 15 15 17 130
17 l130 0 -2 352 -3 352 -34 23 c-19 13 -60 31 -90 39 -31 9 -58 18 -60 20 -1
1 5 26 14 54 24 71 14 87 -92 152 -170 105 -412 189 -681 239 -296 54 -850 66
-1114 23 l-38 -6 0 251 0 251 -350 0 -350 0 0 -343 0 -343 -65 -32 c-70 -34
-145 -96 -145 -118 0 -8 14 -38 30 -67 17 -30 30 -59 30 -65 0 -8 -20 -12 -55
-12 -65 0 -119 -20 -135 -49 -11 -21 -16 -21 -360 -21 l-350 0 0 350 0 350
-525 0 -525 0 0 175 0 175 525 0 525 0 0 175 0 175 350 0 350 0 0 175 0 175
-175 0 -175 0 0 175 0 175 175 0 175 0 0 -175 0 -175 175 0 175 0 0 350 0 350
350 0 350 0 0 -175 0 -175 175 0 175 0 0 -175 0 -175 175 0 175 0 0 350 0 350
-175 0 -175 0 0 175 0 175 -175 0 -175 0 0 525 0 525 175 0 175 0 0 -525z
m2100 350 l0 -175 -350 0 -350 0 0 175 0 175 350 0 350 0 0 -175z m0 -1750 l0
-175 -175 0 -175 0 0 175 0 175 175 0 175 0 0 -175z m-2112 -1498 c2 -46 0
-57 -13 -57 -12 0 -15 13 -15 61 0 81 24 77 28 -4z m82 2 c0 -41 -4 -59 -11
-57 -7 2 -11 25 -11 56 1 65 0 62 12 62 6 0 10 -27 10 -61z m66 17 c6 -25 -10
-66 -26 -66 -5 0 -6 15 -3 34 3 18 0 43 -7 55 -11 21 -10 22 9 11 11 -6 23
-21 27 -34z m71 14 c-8 -22 -8 -38 0 -60 12 -32 3 -40 -17 -14 -20 23 -16 75
5 90 25 18 25 18 12 -16z m-330 -16 c18 -20 33 -46 33 -57 0 -16 -9 -11 -45
29 -25 27 -45 52 -45 56 0 18 26 5 57 -28z m401 -8 c3 -36 -10 -66 -30 -66 -5
0 -4 10 3 21 6 12 9 37 6 56 -4 24 -2 33 6 30 7 -2 13 -20 15 -41z m58 37 c-3
-4 7 -21 24 -38 20 -21 28 -37 24 -48 -3 -9 -10 -17 -15 -17 -4 0 -6 6 -3 14
3 7 -6 21 -20 30 -27 17 -37 66 -14 66 6 0 8 -3 4 -7z m203 -49 c17 -66 -2
-79 -23 -15 -19 60 -19 61 -2 61 8 0 18 -19 25 -46z m-819 7 c0 -16 4 -41 10
-55 5 -14 6 -26 1 -26 -16 0 -28 25 -34 68 -4 32 -2 42 9 42 9 0 14 -11 14
-29z m890 5 c0 -38 -12 -86 -21 -86 -5 0 -9 25 -9 55 0 42 3 55 15 55 9 0 15
-9 15 -24z m76 -7 c0 -13 6 -23 12 -21 7 1 12 -5 12 -14 0 -10 -6 -14 -15 -10
-11 4 -15 -1 -15 -19 0 -16 -6 -25 -16 -25 -14 0 -15 7 -10 38 3 20 6 48 6 60
0 32 25 23 26 -9z m-1096 1 c0 -5 -2 -10 -4 -10 -3 0 -8 5 -11 10 -3 6 -1 10
4 10 6 0 11 -4 11 -10z m1236 -59 c20 -52 21 -62 8 -57 -9 3 -18 6 -20 6 -2 0
-4 8 -4 18 0 10 -4 22 -9 28 -4 5 -13 24 -19 42 -10 29 -9 33 4 30 9 -2 26
-30 40 -67z m-1252 25 c28 -7 40 -31 26 -54 -9 -16 -9 -16 -10 0 0 10 -13 24
-30 33 -20 10 -30 23 -30 38 1 19 2 20 10 6 5 -9 21 -19 34 -23z m-90 8 c16
-16 21 -50 10 -78 -10 -25 -22 -19 -17 8 3 14 -2 39 -10 55 -17 33 -8 41 17
15z m1443 -6 c-3 -13 -9 -40 -13 -61 -3 -21 -11 -36 -16 -35 -11 4 -11 0 -2
66 4 36 11 52 21 52 11 0 14 -7 10 -22z m-1492 -82 c7 -16 5 -17 -12 -7 -33
17 -44 66 -20 90 10 10 13 5 18 -26 3 -21 10 -46 14 -57z m889 69 c3 -8 1 -15
-4 -15 -6 0 -10 7 -10 15 0 8 2 15 4 15 2 0 6 -7 10 -15z m667 -11 c-24 -30
-27 -64 -8 -83 10 -11 8 -11 -10 -2 -41 21 -21 111 24 111 11 0 9 -7 -6 -26z
m-1637 -6 c19 -27 21 -62 3 -76 -10 -9 -13 -4 -14 24 -1 20 -6 41 -12 47 -6 6
-11 15 -11 19 0 16 19 8 34 -14z m1701 12 c3 -5 1 -10 -4 -10 -6 0 -11 5 -11
10 0 6 2 10 4 10 3 0 8 -4 11 -10z m-1751 -39 c3 -22 9 -46 12 -55 4 -10 1
-16 -8 -16 -8 0 -19 19 -26 45 -15 58 -15 65 2 65 8 0 16 -16 20 -39z m1835
-53 c1 -21 -3 -38 -8 -38 -15 0 -29 83 -17 98 13 18 24 -8 25 -60z m-409 58
c0 -3 -4 -8 -10 -11 -5 -3 -10 -1 -10 4 0 6 5 11 10 11 6 0 10 -2 10 -4z
m-1521 -45 c34 -42 37 -51 20 -51 -15 0 -69 61 -69 78 0 22 18 13 49 -27z
m2041 -6 c13 -30 17 -52 11 -66 -6 -18 -11 -12 -29 38 -25 69 -26 73 -12 73 6
0 19 -20 30 -45z m-2169 -30 c12 -40 13 -55 4 -59 -13 -4 -48 91 -39 106 11
17 20 6 35 -47z m1519 22 l95 -12 3 -72 3 -73 -30 0 c-24 0 -32 5 -37 24 -3
14 -13 31 -23 40 -23 21 -134 46 -215 48 -57 1 -69 -2 -92 -23 -14 -13 -33
-40 -43 -59 -15 -33 -19 -35 -73 -38 -54 -3 -58 -1 -72 25 -18 36 -54 69 -88
82 -24 9 -28 16 -28 47 l0 37 253 -7 c138 -3 295 -12 347 -19z m741 -23 c-12
-15 -21 -38 -21 -51 0 -14 -4 -21 -10 -18 -28 17 3 95 37 95 11 0 9 -7 -6 -26z
m-2366 -24 c36 -12 48 -29 34 -51 -7 -12 -9 -11 -9 2 0 10 -13 20 -32 25 -27
8 -33 15 -35 39 -1 17 1 22 3 13 3 -9 20 -22 39 -28z m2435 -4 c0 -19 -36 -66
-51 -66 -4 0 2 17 12 37 10 21 19 46 19 58 0 16 2 17 10 5 5 -8 10 -24 10 -34z
m-1760 -55 l0 -88 -41 -7 c-29 -5 -53 -18 -76 -41 -39 -39 -43 -41 -43 -22 0
20 -80 97 -102 97 -12 0 -23 -11 -29 -30 -9 -23 -17 -30 -37 -30 -90 -1 -153
-64 -160 -160 -3 -51 -1 -58 27 -87 l32 -31 -21 -39 c-17 -34 -26 -40 -54 -41
-50 -2 -81 -17 -125 -61 -31 -31 -40 -49 -45 -87 -12 -81 18 -126 107 -168 32
-15 37 -21 37 -51 l0 -35 -74 0 c-68 0 -74 2 -80 23 -9 32 -52 81 -65 73 -6
-4 -11 -27 -11 -52 l0 -44 -145 0 -145 0 0 333 0 332 38 -70 c36 -66 41 -71
98 -93 80 -30 87 -35 104 -65 13 -23 12 -30 -4 -63 -10 -21 -35 -59 -55 -84
-68 -81 -78 -121 -38 -157 24 -22 95 -49 104 -39 4 3 -1 14 -10 24 -34 38 -14
92 70 186 61 67 73 121 47 212 -5 19 0 22 55 27 107 11 136 48 148 182 5 70 4
77 -17 100 l-23 25 36 15 c79 33 387 102 465 104 l32 1 0 -89z m1814 58 c-3
-6 2 -26 12 -45 17 -32 18 -35 1 -51 -16 -16 -17 -16 -17 9 0 15 -4 30 -10 33
-14 9 -12 52 3 58 18 8 19 8 11 -4z m-2606 -49 c1 -2 7 2 12 10 8 13 10 12 10
-2 0 -9 -5 -18 -11 -20 -9 -3 -9 -9 0 -25 8 -15 8 -24 0 -28 -12 -8 -10 -12
-36 52 -14 36 -17 53 -9 56 6 2 15 -5 20 -17 6 -11 12 -23 14 -26z m1518 -2
c5 -16 16 -22 37 -19 4 0 7 -3 7 -9 0 -5 7 -10 15 -10 9 0 15 -9 15 -25 0 -38
35 -100 73 -129 62 -48 189 -80 213 -56 27 27 64 -22 45 -59 -17 -32 -13 -51
17 -76 16 -13 48 -49 72 -80 24 -31 50 -55 61 -55 30 0 49 28 49 76 0 48 5 53
27 27 14 -19 53 -89 53 -97 0 -2 -10 -6 -22 -8 -15 -2 -26 -13 -33 -34 -6 -17
-16 -38 -24 -47 -11 -14 -11 -21 3 -42 9 -14 15 -29 12 -33 -3 -5 -29 -19 -58
-32 -64 -29 -63 -29 -56 -36 4 -3 21 2 40 11 l33 17 -28 -29 c-31 -33 -27 -43
17 -44 l31 -1 -32 -10 c-35 -11 -38 -15 -25 -36 7 -10 20 -8 60 9 29 12 52 26
52 31 0 5 5 6 10 3 6 -4 10 5 10 20 0 15 4 24 10 20 6 -3 10 -16 10 -28 0 -38
13 -49 43 -38 24 9 27 8 33 -14 12 -47 -3 -367 -19 -425 -58 -208 -140 -354
-244 -435 -39 -30 -58 -55 -79 -102 -15 -35 -33 -63 -39 -63 -7 0 -19 -10 -27
-22 -13 -20 -17 -21 -32 -9 -14 12 -20 11 -43 -10 -18 -17 -27 -20 -30 -11 -3
6 -9 10 -13 7 -5 -3 -18 0 -29 7 -15 9 -17 16 -9 25 7 9 6 20 -6 38 -18 27
-61 34 -97 14 -11 -6 -38 -12 -60 -14 -39 -4 -82 -28 -108 -59 -10 -12 -18
-13 -34 -5 -11 6 -41 9 -66 6 -38 -4 -50 -1 -74 19 -31 26 -57 30 -88 14 -14
-8 -37 -4 -92 15 -116 40 -166 30 -154 -32 8 -44 -1 -55 -31 -35 -14 9 -35 15
-45 14 -11 -2 -32 8 -47 23 -16 15 -33 24 -39 20 -6 -3 -14 1 -17 10 -5 13 -9
14 -15 4 -5 -9 -17 5 -35 46 -18 39 -49 82 -91 124 -78 78 -95 102 -102 149
-5 28 -12 38 -28 40 -23 3 -60 81 -103 217 -25 80 -37 263 -25 389 6 72 8 75
27 65 14 -8 23 -8 31 0 17 17 88 13 134 -9 24 -10 45 -15 48 -10 3 5 -8 11
-25 15 -41 9 -38 22 10 35 50 13 51 25 3 41 -21 6 -43 16 -50 21 -7 5 -14 5
-17 -1 -4 -5 3 -13 15 -16 25 -8 14 -22 -21 -27 -20 -2 -24 1 -22 17 13 85 10
127 -10 151 -12 13 -30 24 -39 24 -41 0 -36 39 12 115 31 48 33 49 40 25 4
-14 7 -44 8 -67 1 -37 4 -42 31 -48 20 -4 36 -1 52 11 26 19 118 148 118 164
0 6 -7 25 -16 42 -9 16 -11 28 -6 24 13 -8 35 20 30 36 -3 7 0 18 6 24 7 8 17
4 36 -13 30 -29 56 -27 156 13 86 33 90 37 121 98 19 38 24 60 20 92 -5 46 -1
58 17 46 6 -4 22 -8 36 -8 14 -1 25 -3 25 -4 0 -1 8 -3 18 -5 10 -2 17 3 17
12 0 12 3 13 14 4 11 -9 15 -9 19 1 2 7 15 -8 28 -34 l23 -48 76 0 77 0 12 40
c16 55 84 89 97 48z m-490 -24 c16 -38 16 -64 -1 -67 -5 -1 -12 15 -16 37 -10
63 -43 73 -89 25 -16 -18 -30 -27 -30 -20 0 26 49 61 85 61 32 0 38 -4 51 -36z
m702 20 c12 -8 22 -22 22 -31 0 -13 -5 -12 -24 6 -32 31 -65 24 -85 -16 -19
-39 -30 -43 -23 -8 5 28 46 65 71 65 9 0 27 -7 39 -16z m22 -89 c0 6 5 2 11
-8 9 -16 5 -69 -8 -90 -3 -5 -14 1 -25 12 -10 12 -23 19 -28 16 -5 -3 -20 0
-34 6 -27 13 -37 55 -13 57 6 1 28 5 47 10 23 5 38 5 42 -2 5 -7 8 -7 8 -1z
m203 -36 c22 -23 27 -39 27 -77 0 -52 -26 -142 -41 -142 -12 0 -11 9 7 64 21
62 14 134 -16 158 -45 37 -97 16 -127 -50 l-11 -27 -1 26 c-1 31 15 53 54 74
39 20 73 12 108 -26z m-995 13 c12 -7 27 -10 32 -7 12 7 21 -10 15 -27 -6 -14
-50 -38 -71 -38 -6 0 -17 -6 -23 -13 -6 -8 -21 -13 -33 -12 -26 2 -37 38 -18
60 7 8 9 22 6 31 -4 12 -2 15 9 11 8 -4 17 -2 19 2 7 11 37 8 64 -7z m-410
-33 c46 -36 62 -69 61 -129 -1 -50 -2 -52 -9 -21 -11 48 -41 84 -81 98 -19 7
-30 12 -24 12 5 1 4 6 -3 13 -16 16 -82 -30 -107 -75 -16 -30 -17 -38 -6 -51
8 -9 20 -16 27 -16 8 0 14 -9 14 -20 0 -26 -18 -25 -47 2 -33 31 -31 78 7 118
17 18 30 40 30 49 0 16 32 28 103 40 5 0 21 -8 35 -20z m256 0 c22 -17 27 -28
24 -58 -2 -30 -7 -36 -25 -36 -13 0 -23 4 -23 10 0 5 8 10 18 10 25 0 26 38 2
60 -25 23 -81 25 -106 5 -9 -8 -23 -28 -30 -45 -7 -16 -13 -23 -14 -15 0 18
26 59 48 78 24 19 76 14 106 -9z m1309 -41 c-26 -12 -31 -38 -8 -38 11 0 8 -9
-10 -36 -15 -22 -26 -53 -27 -78 -1 -24 -4 -10 -7 34 -6 69 -4 77 18 103 14
15 32 27 40 26 11 0 9 -4 -6 -11z m232 -44 c10 -25 31 -61 47 -80 28 -31 35
-34 89 -34 l59 0 0 -95 c0 -88 -1 -95 -20 -95 -11 0 -41 16 -67 36 -39 30 -53
35 -83 31 -47 -6 -67 6 -75 44 -5 21 -2 36 9 48 9 10 19 40 22 67 5 42 2 55
-20 87 l-25 37 23 0 c18 0 27 -9 41 -46z m-485 14 c0 -16 -31 -21 -45 -7 -12
12 -10 14 15 15 17 1 30 -3 30 -8z m-1303 -35 c27 -33 37 -90 28 -151 -6 -37
-9 -43 -16 -27 -4 11 -8 15 -8 8 -1 -7 -7 -10 -15 -7 -10 4 -13 15 -9 38 3 18
-2 48 -11 69 -15 37 -15 37 10 37 13 0 24 4 24 8 0 16 -39 44 -72 53 -31 8
-31 8 7 4 28 -3 47 -12 62 -32z m-133 2 c-9 -14 -19 -23 -22 -20 -5 4 26 45
35 45 2 0 -4 -11 -13 -25z m1835 -1 c26 -33 9 -84 -27 -84 -13 0 -13 2 1 18
31 34 14 72 -31 72 -39 0 -63 -19 -84 -67 -24 -55 -35 -51 -12 6 32 79 111
108 153 55z m-1772 -18 c-9 -19 -14 -22 -29 -12 -17 10 -17 12 -1 24 29 21 43
16 30 -12z m182 -51 c0 -5 -4 -3 -9 5 -5 8 -9 22 -9 30 0 16 17 -16 18 -35z
m1559 33 c-3 -7 -20 -14 -38 -16 -19 -2 -40 -11 -48 -20 -9 -12 -11 -12 -6 -2
16 33 39 50 66 50 19 0 28 -4 26 -12z m-1728 -38 c6 -11 7 -20 2 -20 -6 0 -12
9 -15 20 -3 11 -3 20 -1 20 2 0 8 -9 14 -20z m184 -26 c3 -8 2 -12 -4 -9 -6 3
-10 10 -10 16 0 14 7 11 14 -7z m-214 -45 c-7 -11 -14 -18 -17 -15 -3 3 0 12
7 21 18 21 23 19 10 -6z m1557 -11 c-3 -8 -6 -5 -6 6 -1 11 2 17 5 13 3 -3 4
-12 1 -19z m60 -30 c-3 -8 -6 -5 -6 6 -1 11 2 17 5 13 3 -3 4 -12 1 -19z
m-1662 -8 c3 -5 1 -10 -4 -10 -6 0 -11 5 -11 10 0 6 2 10 4 10 3 0 8 -4 11
-10z m-84 -112 c22 -12 39 -24 39 -27 0 -7 -40 -25 -77 -36 -17 -5 -23 -2 -23
10 0 9 5 13 10 10 12 -8 50 3 50 15 0 12 -63 19 -77 8 -7 -6 -13 -25 -13 -42
0 -38 -14 -61 -30 -51 -7 5 -10 19 -6 37 4 21 2 28 -7 26 -6 -3 -15 -20 -18
-39 l-6 -34 -1 35 c-2 40 20 72 63 94 39 21 50 20 96 -6z m1910 2 c44 23 133
27 174 8 30 -13 55 -55 55 -90 0 -34 -36 -87 -64 -94 -25 -6 -66 10 -66 26 0
6 11 10 24 10 13 0 29 7 37 16 11 13 9 23 -12 62 -18 33 -31 46 -44 45 -11 -1
-27 2 -36 7 -22 12 -59 -15 -59 -44 0 -32 -11 -39 -27 -18 -13 15 -13 14 -9
-13 3 -16 2 -46 -3 -65 l-9 -35 -1 35 -1 35 -18 -23 c-21 -27 -32 -20 -32 23
0 17 -5 36 -12 43 -9 9 -8 16 5 30 9 10 17 25 17 34 0 26 14 30 28 9 14 -20
14 -20 53 -1z m56 -56 c-9 -9 -28 6 -21 18 4 6 10 6 17 -1 6 -6 8 -13 4 -17z
m-1827 -48 c-5 -14 -6 -28 -1 -30 12 -8 -12 -76 -26 -76 -7 0 -13 7 -13 16 0
8 -4 12 -10 9 -6 -4 -10 6 -10 24 0 16 -4 33 -10 36 -5 3 -10 -1 -10 -11 0
-13 -5 -10 -21 10 -34 43 -95 31 -67 -13 10 -17 10 -23 -2 -35 -27 -26 -55
-28 -84 -5 -31 24 -29 37 3 17 28 -17 54 -1 61 38 4 23 11 30 33 32 15 2 27 8
27 13 0 6 9 7 20 4 12 -4 20 -2 20 5 0 7 8 10 20 7 10 -3 25 1 31 9 10 13 15
12 30 -5 15 -16 17 -25 9 -45z m1890 54 c0 -12 -28 -25 -36 -17 -9 9 6 27 22
27 8 0 14 -5 14 -10z m-60 -50 c0 -5 -6 -10 -14 -10 -8 0 -22 -10 -30 -22 -13
-18 -16 -19 -16 -6 0 9 7 24 16 32 17 18 44 21 44 6z m80 -5 c0 -17 -2 -18
-24 -9 -23 9 -20 24 4 24 11 0 20 -7 20 -15z m-2230 -25 c0 -5 -5 -10 -11 -10
-5 0 -7 5 -4 10 3 6 8 10 11 10 2 0 4 -4 4 -10z m1998 -63 c3 -13 -4 -17 -29
-17 -32 0 -32 0 -14 20 21 23 38 22 43 -3z m202 -53 c0 -2 -9 0 -20 6 -16 8
-20 8 -20 -4 0 -7 7 -17 16 -20 8 -3 13 -10 9 -15 -3 -6 4 -15 15 -21 12 -6
20 -21 20 -37 0 -21 -2 -24 -15 -13 -17 14 -19 7 -6 -18 5 -9 10 -35 12 -57 3
-33 0 -39 -13 -37 -14 2 -15 -2 -8 -28 10 -35 1 -140 -12 -140 -5 0 -6 -9 -3
-20 4 -12 2 -26 -3 -33 -5 -7 -13 -34 -17 -61 -8 -61 -63 -186 -81 -186 -7 0
-14 -6 -17 -12 -2 -7 -7 -10 -11 -6 -7 6 19 67 33 78 16 13 33 56 36 94 6 61
22 118 36 127 10 6 10 11 1 21 -8 11 -8 20 2 40 8 14 12 38 10 54 -2 16 -6 76
-8 134 -3 58 -9 125 -12 148 l-7 44 32 -16 c17 -9 31 -19 31 -22z m247 2 c-3
-7 -2 -29 2 -48 4 -18 5 -42 1 -52 -5 -16 -7 -17 -19 -2 -9 10 -21 14 -33 10
-18 -5 -18 -4 3 38 22 45 38 68 46 68 3 0 3 -6 0 -14z m-2522 -62 c9 -20 14
-38 11 -41 -3 -4 -6 -1 -6 5 0 20 -20 13 -30 -10 -7 -18 -9 -12 -9 30 -1 61
10 66 34 16z m233 4 c18 -18 15 -53 -7 -72 -17 -16 -19 -16 -24 6 -4 13 -2 24
3 26 6 2 7 15 4 28 -7 26 5 31 24 12z m2276 -129 c14 -45 16 -63 7 -72 -6 -6
-11 -24 -11 -39 0 -16 -19 -64 -42 -106 -57 -106 -88 -151 -88 -129 0 9 4 17
10 17 5 0 25 35 45 78 20 42 41 85 46 95 5 10 7 34 3 53 -4 22 -2 45 6 60 17
32 9 38 -26 20 -35 -19 -38 -16 -20 20 8 16 17 37 20 47 11 35 32 16 50 -44z
m-2461 12 c-5 -3 -14 -22 -19 -41 -5 -19 -13 -30 -16 -25 -4 6 3 31 14 55 12
27 22 39 25 31 3 -7 1 -16 -4 -20z m2350 -72 c-1 -30 -5 -74 -9 -99 l-7 -45
-12 45 c-6 25 -8 53 -3 62 4 9 8 35 8 58 0 29 4 40 13 37 8 -2 11 -22 10 -58z
m-2173 26 c-7 -8 -17 -15 -23 -15 -5 0 -2 9 8 20 21 23 35 19 15 -5z m2349
-17 c-6 -11 -9 -29 -6 -39 7 -28 -26 -113 -46 -117 -15 -3 -15 0 -3 30 7 18
17 58 20 88 7 52 20 75 38 64 4 -3 3 -14 -3 -26z m-2637 5 c14 -12 18 -30 18
-77 l-1 -61 -19 36 c-25 48 -42 119 -27 119 6 0 19 -7 29 -17z m2518 -65 c0
-10 -9 -22 -19 -28 -26 -14 -38 -13 -23 2 7 7 12 30 12 53 1 40 1 40 15 15 8
-14 14 -33 15 -42z m-2434 1 c8 -16 14 -38 13 -51 l0 -23 -11 23 c-14 27 -28
29 -28 2 0 -11 -4 -20 -10 -20 -5 0 -8 27 -7 59 1 65 13 67 43 10z m211 -11
c-3 -8 -6 -5 -6 6 -1 11 2 17 5 13 3 -3 4 -12 1 -19z m-109 -47 c3 -8 -1 -12
-9 -9 -7 2 -15 10 -17 17 -3 8 1 12 9 9 7 -2 15 -10 17 -17z m2299 -43 c-3 -7
-5 -2 -5 12 0 14 2 19 5 13 2 -7 2 -19 0 -25z m-2407 -58 c14 -10 23 -21 20
-23 -3 -3 -18 6 -33 19 -33 28 -23 32 13 4z m134 4 c10 -27 7 -37 -9 -24 -8 6
-19 9 -25 5 -6 -3 -10 3 -10 14 0 25 35 29 44 5z m85 -28 c15 -53 70 -162 112
-222 20 -30 28 -51 24 -64 -8 -24 -15 -25 -41 -5 -28 21 -32 19 -36 -22 -3
-41 -23 -43 -24 -3 0 14 -10 43 -22 65 -16 29 -22 57 -22 102 0 51 -4 66 -25
91 -28 33 -29 40 -15 76 14 39 34 31 49 -18z m2090 15 c35 -33 44 -69 12 -50
-27 18 -46 6 -59 -39 -7 -22 -19 -45 -27 -52 -9 -7 -15 -29 -15 -55 0 -49 -16
-102 -39 -128 -14 -17 -16 -16 -26 20 -10 35 -8 45 26 118 20 44 45 110 55
148 10 37 24 67 30 67 7 0 26 -13 43 -29z m-2349 -1 c0 -5 -7 -10 -16 -10 -8
0 -12 5 -9 10 3 6 10 10 16 10 5 0 9 -4 9 -10z m2480 -50 c0 -16 -4 -30 -9
-30 -14 0 -20 37 -8 49 16 16 17 14 17 -19z m-2276 -21 c21 -16 26 -29 25 -62
0 -37 -1 -39 -10 -18 -5 13 -20 37 -34 53 -41 48 -29 65 19 27z m2162 -4 c3
-8 -1 -22 -10 -30 -9 -9 -16 -27 -16 -39 0 -12 -13 -35 -30 -51 l-30 -29 0 35
c0 22 7 41 20 52 11 9 20 27 20 40 0 13 3 27 7 30 11 12 33 8 39 -8z m-2036
-10 c0 -8 -2 -15 -4 -15 -2 0 -6 7 -10 15 -3 8 -1 15 4 15 6 0 10 -7 10 -15z
m-144 -56 c7 -15 14 -36 14 -45 0 -16 -1 -16 -19 0 -15 14 -24 15 -39 7 -18
-10 -20 -7 -24 32 -3 23 -3 47 0 54 6 18 49 -13 68 -48z m2264 18 c0 -31 -6
-49 -20 -62 -11 -10 -20 -26 -20 -36 0 -10 -16 -31 -35 -46 -39 -31 -47 -58
-15 -48 11 4 20 2 20 -4 0 -6 -11 -11 -25 -11 -15 0 -39 -7 -55 -15 -34 -18
-35 -17 -16 27 8 18 18 50 21 71 3 21 13 41 22 44 8 3 23 26 34 50 10 24 23
42 29 38 5 -3 15 3 22 15 22 34 38 24 38 -23z m-2381 13 c14 0 21 -13 29 -52
l10 -53 -20 25 c-11 14 -25 25 -30 25 -13 0 -38 35 -38 53 0 9 6 12 16 8 9 -3
24 -6 33 -6z m2421 -50 c0 -11 -4 -20 -9 -20 -5 0 -7 9 -4 20 3 11 7 20 9 20
2 0 4 -9 4 -20z m43 -17 c-6 -40 -43 -93 -43 -61 0 8 7 21 15 28 8 7 15 22 15
35 0 19 7 35 16 35 2 0 0 -17 -3 -37z m-2508 -13 c8 -16 27 -38 41 -49 20 -16
23 -21 10 -21 -41 0 -116 62 -116 95 0 23 50 4 65 -25z m2421 -59 c-9 -10 -16
-23 -16 -29 0 -7 -7 -12 -16 -12 -14 0 -13 2 1 17 10 9 22 31 28 47 9 24 12
27 15 13 2 -10 -3 -26 -12 -36z m-2256 -1 c6 -11 7 -20 2 -20 -6 0 -12 9 -15
20 -3 11 -3 20 -1 20 2 0 8 -9 14 -20z m2087 -12 c-3 -7 -5 -2 -5 12 0 14 2
19 5 13 2 -7 2 -19 0 -25z m-2011 -61 c-2 -7 -5 -4 -5 6 -1 9 -5 17 -11 17 -5
0 -10 10 -10 23 1 21 2 20 16 -6 8 -16 13 -34 10 -40z m2215 40 c-10 -9 -11
-8 -5 6 3 10 9 15 12 12 3 -3 0 -11 -7 -18z m-301 -62 c0 -23 -7 -50 -15 -61
-14 -18 -14 -17 -3 9 9 21 9 30 0 39 -7 7 -12 21 -12 32 0 45 -15 1 -15 -47
-1 -29 -8 -62 -16 -75 -12 -20 -12 -24 1 -32 22 -14 28 -12 35 11 8 24 66 52
90 43 8 -4 21 -1 28 4 7 6 28 10 47 10 19 -1 47 2 63 6 40 12 34 -10 -15 -54
-31 -27 -49 -37 -64 -33 -12 2 -25 0 -28 -6 -11 -17 -46 -13 -46 6 0 15 -1 15
-18 0 -12 -11 -36 -17 -64 -17 -41 0 -47 -3 -52 -26 -5 -18 -12 -24 -22 -20
-9 3 -22 6 -29 6 -7 0 2 15 21 34 19 19 34 43 34 55 0 31 -14 26 -28 -11 -15
-40 -21 -34 -14 15 3 30 11 41 31 50 34 15 41 26 32 51 -9 25 -4 44 17 69 16
17 17 17 29 1 7 -10 13 -36 13 -59z m-1741 -10 l0 -40 -15 28 c-10 19 -13 39
-8 60 6 28 8 30 15 12 4 -11 8 -38 8 -60z m1801 11 l-32 -31 26 39 c14 21 27
44 27 50 1 6 3 3 6 -8 3 -12 -6 -30 -27 -50z m-1873 2 c11 -13 23 -34 26 -48
6 -23 5 -23 -17 5 -29 36 -40 30 -25 -14 13 -37 9 -46 -14 -28 -14 10 -16 21
-11 60 4 26 10 47 14 47 3 0 16 -10 27 -22z m203 -107 c0 -6 -53 30 -77 52
-13 11 -23 27 -23 34 0 8 22 -7 50 -34 27 -26 50 -50 50 -52z m1492 68 c-10
-18 -29 -39 -42 -48 -20 -13 -17 -6 14 32 45 55 52 59 28 16z m-1797 11 c3 -5
4 -10 1 -10 -2 0 -11 -3 -19 -6 -8 -3 -17 2 -20 10 -7 18 27 23 38 6z m229
-59 c15 -17 15 -19 1 -31 -10 -8 -14 -22 -11 -33 3 -14 2 -17 -5 -10 -14 14
-24 93 -12 93 6 0 17 -8 27 -19z m-169 -14 c16 -13 15 -13 -15 -9 -30 4 -32 3
-27 -17 9 -35 -10 -34 -50 3 l-38 35 56 1 c31 0 63 -6 74 -13z m2080 -46 c-3
-6 -11 -11 -17 -11 -6 0 -6 6 2 15 14 17 26 13 15 -4z m-1870 -1 c3 -5 2 -10
-4 -10 -5 0 -13 5 -16 10 -3 6 -2 10 4 10 5 0 13 -4 16 -10z m1435 -35 c-7 -9
-15 -13 -18 -10 -3 2 1 11 8 20 7 9 15 13 18 10 3 -2 -1 -11 -8 -20z m-1447
-35 c9 0 17 -7 17 -15 0 -18 -1 -18 -34 -5 -14 5 -26 16 -26 25 0 8 -7 15 -16
15 -8 0 -12 5 -9 11 5 7 15 3 29 -10 12 -12 30 -21 39 -21z m65 15 c15 -33 15
-35 -1 -35 -15 0 -39 44 -30 54 12 11 20 6 31 -19z m1406 -2 c-21 -41 -17 -53
14 -53 16 0 37 -7 48 -15 10 -8 28 -15 40 -15 11 0 29 -9 39 -20 17 -19 17
-22 3 -36 -12 -13 -20 -14 -36 -5 -11 6 -36 11 -55 11 -27 0 -41 8 -70 40 -19
22 -41 40 -49 40 -9 1 67 78 79 80 1 0 -5 -12 -13 -27z m-1619 -8 c-70 -24
-115 -31 -115 -18 0 3 7 15 17 25 13 14 31 18 92 17 l76 0 -70 -24z m1830 16
c3 -5 22 -7 43 -5 31 4 34 3 19 -6 -21 -13 -120 -4 -111 11 7 12 41 12 49 0z
m122 3 c-3 -3 -12 -4 -19 -1 -8 3 -5 6 6 6 11 1 17 -2 13 -5z m-1892 -34 c-3
-5 -18 -10 -33 -10 -21 0 -24 2 -12 10 20 13 53 13 45 0z m1204 1 c22 -14 7
-36 -25 -36 -27 0 -29 -2 -26 -35 2 -33 2 -34 -13 -16 -41 53 9 121 64 87z
m260 -18 c-12 -35 -55 -90 -64 -81 -7 7 55 108 67 108 4 0 3 -12 -3 -27z
m-934 -8 c29 -28 32 -55 8 -82 -10 -10 -14 -13 -10 -7 5 7 7 25 5 41 -2 23 -8
28 -32 28 -32 1 -47 22 -25 36 21 13 28 11 54 -16z m135 -27 c0 -2 -8 -25 -19
-52 -17 -47 -20 -49 -60 -50 -45 -2 -48 1 -26 30 8 10 15 30 15 44 0 22 5 25
45 28 25 1 45 1 45 0z m870 -54 c17 -26 36 -41 55 -44 l30 -6 -29 -6 c-32 -6
-110 13 -140 35 -18 13 -18 15 4 45 27 37 41 33 80 -24z m-801 35 c22 -8 30
-16 26 -26 -3 -9 0 -22 6 -29 15 -18 9 -18 -30 2 -17 9 -38 13 -46 10 -22 -8
-26 8 -9 32 18 26 13 25 53 11z m-639 -15 c0 -2 -9 -4 -21 -4 -11 0 -18 4 -14
10 5 8 35 3 35 -6z m121 -9 c5 4 9 2 9 -4 0 -5 -5 -13 -11 -17 -13 -7 -29 13
-29 36 1 12 3 11 11 -3 6 -9 14 -15 20 -12z m697 9 c15 -10 22 -25 22 -49 0
-41 -22 -65 -59 -65 -35 0 -58 18 -66 52 -5 21 -1 33 19 52 29 30 52 33 84 10z
m162 -10 c11 -13 9 -19 -12 -41 -22 -22 -32 -25 -62 -19 -20 4 -35 12 -33 19
4 22 44 48 88 56 4 0 12 -6 19 -15z m68 -56 c9 -9 17 -10 30 -2 26 16 108 8
154 -16 22 -12 48 -18 59 -15 12 4 19 2 19 -8 0 -17 67 -40 76 -26 3 6 11 5
20 -2 15 -12 38 -13 262 -3 l152 6 0 -37 0 -37 -42 6 c-24 3 -59 2 -78 -4 -53
-16 -256 -25 -264 -11 -4 6 -23 11 -43 11 -43 0 -127 23 -211 58 -50 20 -65
23 -72 13 -6 -10 -10 -9 -18 5 -8 15 -13 16 -26 5 -9 -8 -16 -9 -16 -3 0 6
-18 13 -40 17 -45 8 -57 35 -15 35 14 0 25 5 25 10 0 14 13 13 28 -2z m-668
-8 c0 -5 -7 -10 -15 -10 -8 0 -15 5 -15 10 0 6 7 10 15 10 8 0 15 -4 15 -10z
m-497 -52 c18 -6 99 17 91 25 -4 4 0 7 9 7 10 0 17 -4 17 -10 0 -5 5 -10 11
-10 5 0 7 6 3 13 -6 9 -5 9 7 1 8 -7 33 -12 56 -12 24 -1 48 -4 54 -8 6 -3 15
0 20 7 8 12 10 12 18 0 5 -7 14 -10 21 -6 6 4 17 -1 25 -11 11 -15 16 -17 26
-6 18 17 30 15 23 -3 -4 -10 0 -15 15 -15 13 0 21 6 21 18 1 15 2 15 15 -2 14
-19 17 -19 93 -3 112 24 126 20 52 -14 -96 -45 -169 -62 -219 -50 -23 5 -50 7
-61 4 -11 -3 -27 0 -35 7 -8 7 -24 10 -34 7 -12 -3 -22 1 -25 9 -4 10 -17 13
-43 9 -103 -13 -150 -22 -168 -32 -11 -6 -31 -11 -45 -11 -46 0 -103 -33 -174
-100 -38 -37 -65 -60 -61 -52 19 34 114 157 138 179 15 13 24 28 21 32 -11 18
8 30 20 13 10 -13 21 -15 50 -10 20 4 36 12 35 19 -1 7 0 19 1 27 2 12 3 12 7
-2 2 -9 10 -18 16 -20z m1016 -115 c0 -34 -1 -36 -11 -16 -6 12 -8 29 -5 37
11 27 17 18 16 -21z m-2799 -648 l0 -175 -175 0 -175 0 0 175 0 175 175 0 175
0 0 -175z m5950 -1050 l0 -525 -525 0 -525 0 0 525 0 525 525 0 525 0 0 -525z
m-3150 -1575 l0 -350 -350 0 -350 0 0 350 0 350 350 0 350 0 0 -350z"/>
<path d="M4900 8400 l0 -350 350 0 350 0 0 175 0 175 -175 0 -175 0 0 175 0
175 -175 0 -175 0 0 -350z"/>
<path d="M3500 7525 l0 -175 175 0 175 0 0 -175 0 -175 175 0 175 0 0 350 0
350 -350 0 -350 0 0 -175z"/>
<path d="M5600 7525 l0 -175 350 0 350 0 0 175 0 175 -350 0 -350 0 0 -175z"/>
<path d="M6650 7525 l0 -175 175 0 175 0 0 175 0 175 -175 0 -175 0 0 -175z"/>
<path d="M2450 6125 l0 -175 175 0 175 0 0 -175 0 -175 175 0 175 0 0 -175 0
-175 175 0 175 0 0 350 0 350 -350 0 -350 0 0 175 0 175 -175 0 -175 0 0 -175z"/>
<path d="M8400 6125 l0 -175 175 0 175 0 0 175 0 175 -175 0 -175 0 0 -175z"/>
<path d="M9100 5950 l0 -350 -175 0 -175 0 0 -350 0 -350 -175 0 -175 0 0
-175 0 -175 525 0 525 0 0 175 0 175 -175 0 -175 0 0 350 0 350 175 0 175 0 0
-175 0 -175 175 0 175 0 0 175 0 175 -175 0 -175 0 0 350 0 350 -175 0 -175 0
0 -350z"/>
<path d="M9800 6125 l0 -175 175 0 175 0 0 175 0 175 -175 0 -175 0 0 -175z"/>
<path d="M3850 4900 l0 -350 175 0 175 0 0 175 0 175 175 0 175 0 0 175 0 175
-350 0 -350 0 0 -350z"/>
<path d="M9800 4725 l0 -175 175 0 175 0 0 175 0 175 -175 0 -175 0 0 -175z"/>
<path d="M6300 3850 l0 -350 -525 0 -525 0 0 -175 0 -175 -175 0 -175 0 0
-175 0 -175 -175 0 -175 0 0 -175 0 -175 175 0 175 0 0 175 0 175 175 0 175 0
0 175 0 175 525 0 525 0 0 175 0 175 175 0 175 0 0 175 0 175 175 0 175 0 0
175 0 175 -350 0 -350 0 0 -350z"/>
<path d="M6300 2625 l0 -175 175 0 175 0 0 175 0 175 -175 0 -175 0 0 -175z"/>
<path d="M5780 6590 l0 -60 33 0 c60 0 88 59 47 100 -11 11 -33 20 -50 20
l-30 0 0 -60z m58 -10 c-5 -49 -28 -51 -28 -2 0 21 3 42 7 45 13 13 24 -11 21
-43z"/>
<path d="M5666 6587 c-19 -65 -19 -67 -6 -67 6 0 10 7 10 15 0 8 9 15 20 15
11 0 20 -7 20 -15 0 -15 21 -21 33 -8 6 6 -33 84 -53 106 -5 5 -15 -16 -24
-46z"/>
<path d="M5537 6613 c-14 -4 -17 -11 -13 -26 3 -12 9 -39 12 -60 6 -35 9 -38
33 -32 59 15 79 67 41 105 -20 20 -36 23 -73 13z m63 -69 c0 -14 -18 -29 -26
-21 -3 2 -7 22 -10 43 l-5 39 20 -24 c12 -13 21 -29 21 -37z"/>
<path d="M5974 6565 c-20 -25 -34 -49 -30 -53 4 -4 13 1 20 11 18 23 25 22 36
-8 5 -14 17 -25 26 -25 13 0 15 6 10 31 -3 17 -6 44 -6 60 0 40 -13 36 -56
-16z"/>
<path d="M5451 6581 c-20 -12 25 -122 46 -114 15 6 14 11 -9 75 -17 46 -20 49
-37 39z"/>
<path d="M6084 6544 c-20 -53 -12 -77 29 -82 22 -3 29 4 46 37 23 43 26 61 12
61 -5 0 -11 -12 -14 -27 -9 -42 -33 -71 -48 -56 -9 9 -8 21 5 53 16 40 14 60
-4 60 -4 0 -16 -21 -26 -46z"/>
<path d="M5368 6539 c-38 -22 -14 -69 34 -69 15 0 28 -4 28 -8 0 -17 -13 -21
-31 -11 -15 7 -19 6 -19 -5 0 -24 19 -29 45 -12 44 29 26 76 -27 76 -15 0 -28
5 -28 11 0 6 9 9 20 6 13 -3 20 0 20 9 0 16 -18 18 -42 3z"/>
<path d="M6207 6533 c-12 -11 -8 -23 8 -23 20 0 19 -5 -10 -47 -13 -20 -22
-40 -19 -45 11 -18 30 -6 53 34 22 39 25 40 37 23 14 -18 14 -18 14 1 0 11
-15 29 -35 42 -39 25 -39 25 -48 15z"/>
<path d="M5635 6486 c-276 -63 -495 -278 -562 -554 -24 -101 -22 -267 5 -365
69 -244 249 -434 487 -514 72 -25 95 -27 225 -28 126 0 154 3 215 23 212 71
388 232 468 428 40 101 52 163 52 284 0 141 -13 196 -77 329 -43 90 -61 115
-136 190 -152 151 -290 211 -497 217 -77 2 -141 -1 -180 -10z m145 -67 c0 -10
-4 -19 -10 -19 -5 0 -10 12 -10 26 0 14 4 23 10 19 6 -3 10 -15 10 -26z m74
-20 c-20 -34 -44 -49 -44 -28 0 15 51 71 58 64 2 -2 -4 -19 -14 -36z m-124
-35 c0 -24 -9 -16 -30 29 l-21 42 26 -28 c14 -15 25 -35 25 -43z m190 16 c-29
-41 -73 -75 -78 -60 -4 12 75 89 91 90 5 0 -1 -13 -13 -30z m-240 -45 c7 -8
10 -18 7 -22 -8 -8 -33 13 -60 51 l-22 31 31 -22 c17 -12 37 -29 44 -38z m116
13 c25 -51 45 -68 76 -68 31 0 37 -20 12 -40 -29 -25 -33 -45 -18 -95 8 -27
12 -51 9 -54 -5 -4 -28 7 -87 43 -14 8 -27 3 -64 -22 -25 -18 -49 -31 -52 -28
-3 3 1 31 8 62 l14 56 -34 28 c-39 32 -35 45 20 54 36 6 43 12 62 51 12 25 25
45 30 45 4 0 15 -15 24 -32z m234 18 c0 -5 -126 -76 -135 -76 -3 0 -5 8 -3 17
4 21 138 79 138 59z m-417 -37 c35 -18 49 -39 27 -39 -11 0 -110 60 -110 67 0
7 40 -7 83 -28z m491 -38 c6 -9 -14 -14 -108 -27 -39 -5 -48 -4 -44 7 3 9 27
16 69 20 35 3 67 6 71 7 4 1 9 -2 12 -7z m-516 -20 c4 -11 -6 -12 -51 -7 -102
13 -120 25 -33 23 57 -1 81 -6 84 -16z m495 -57 c56 -14 106 -30 112 -35 12
-12 15 -12 -120 11 -64 11 -121 20 -126 20 -5 0 -9 7 -9 15 0 21 26 19 143
-11z m-476 -1 c4 -11 -22 -15 -187 -29 -111 -9 -76 8 53 27 121 18 129 18 134
2z m452 -84 c67 -39 120 -74 117 -76 -2 -3 -61 22 -130 55 -82 40 -126 66
-126 76 0 9 4 16 9 16 5 0 64 -32 130 -71z m-409 52 c0 -6 -5 -13 -11 -16 -18
-12 -293 -94 -297 -90 -5 5 11 12 158 69 117 45 150 53 150 37z m0 -61 c0 -15
-226 -157 -235 -148 -7 7 206 158 222 158 7 0 13 -5 13 -10z m129 -67 c-1 -53
-3 -61 -9 -38 -11 45 -11 105 0 105 6 0 10 -28 9 -67z m-50 9 c-16 -42 -91
-174 -95 -169 -6 6 52 154 72 185 20 30 36 19 23 -16z m133 -47 c16 -43 27
-80 24 -82 -7 -7 -76 133 -76 153 0 37 26 2 52 -71z m117 -77 c30 -55 50 -98
45 -95 -5 3 -40 50 -78 105 -49 72 -67 106 -62 119 7 17 9 16 24 -5 9 -12 41
-68 71 -124z m-319 118 c0 -14 -153 -221 -172 -232 -12 -8 8 27 92 159 51 80
80 106 80 73z m167 -152 c-3 -3 -12 -4 -19 -1 -8 3 -5 6 6 6 11 1 17 -2 13 -5z
m-5 -35 c-21 -6 -39 -6 -50 0 -13 8 -5 10 33 10 48 -1 49 -1 17 -10z m457 -64
c-16 -16 -49 -11 -49 7 0 6 8 17 18 24 14 11 20 10 32 -2 12 -12 12 -16 -1
-29z m-434 5 c-11 -5 -36 -8 -55 -8 l-35 1 40 7 c57 10 74 10 50 0z m63 -25
c-12 -12 -108 -23 -134 -15 -25 7 -22 9 26 10 30 1 66 5 80 9 25 8 38 6 28 -4z
m-528 -10 c11 -13 10 -18 -6 -29 -21 -16 -54 -5 -54 19 0 25 41 32 60 10z
m550 -15 c0 -17 -47 -30 -103 -30 -59 0 -47 19 13 21 19 0 44 4 55 9 27 12 35
12 35 0z m467 -14 c-6 -17 -47 -20 -47 -3 0 9 6 17 13 20 18 6 38 -4 34 -17z
m-851 -17 c8 -14 -14 -29 -43 -29 -25 0 -29 10 -11 28 15 15 45 16 54 1z m388
-19 c-16 -16 -151 -33 -171 -21 -14 8 -8 11 32 12 28 0 61 5 75 9 36 12 76 12
64 0z m335 -16 c-15 -18 -49 -18 -49 0 0 8 10 16 23 18 30 5 40 -1 26 -18z
m-309 -13 c0 -24 -164 -51 -196 -32 -16 9 -11 11 26 12 25 0 65 6 90 13 56 17
80 19 80 7z m10 -36 c0 -26 -199 -60 -214 -36 -5 7 7 11 36 12 32 0 156 27
176 38 1 0 2 -6 2 -14z m-635 -44 c0 -23 -31 -37 -49 -22 -13 11 -14 17 -4 28
14 17 53 13 53 -6z m165 11 c0 -14 -23 -32 -42 -32 -18 0 -25 20 -11 33 9 10
53 9 53 -1z m70 -51 c-8 -30 -16 -41 -30 -41 -27 0 -25 12 7 63 30 47 40 38
23 -22z m405 39 c-10 -16 -105 -40 -154 -39 -96 2 -98 15 -3 23 51 3 102 11
115 16 30 12 49 12 42 0z m100 -60 c19 -38 35 -72 35 -75 0 -3 -27 -5 -59 -5
-65 0 -86 18 -49 42 19 12 20 18 10 61 -9 43 -8 47 9 47 13 0 29 -21 54 -70z
m-92 19 c-16 -16 -113 -39 -165 -39 -75 0 -64 17 15 23 40 3 90 12 112 20 42
15 56 14 38 -4z m-589 -32 c15 -11 16 -15 4 -25 -17 -14 -58 -5 -58 13 0 12
13 22 31 24 3 1 13 -5 23 -12z m601 -6 c-28 -26 -197 -52 -209 -32 -5 7 10 11
46 12 29 0 73 6 98 13 56 17 77 19 65 7z m-355 -46 c45 -14 45 -14 -52 -14
-75 -1 -98 2 -98 12 0 8 2 16 5 19 8 8 94 -2 145 -17z m-372 -32 c5 -10 7 -24
5 -30 -3 -7 2 -13 11 -13 22 0 20 -23 -4 -45 -20 -18 -21 -18 -35 1 -18 24
-19 34 -2 34 6 1 1 10 -13 21 -24 20 -24 21 -5 35 25 18 32 18 43 -3z m1073
-19 c15 -19 0 -50 -23 -48 -10 1 -13 -6 -10 -22 3 -16 -1 -26 -12 -30 -9 -3
-16 -10 -16 -16 0 -5 -7 -17 -16 -26 -15 -15 -18 -14 -30 3 -19 26 -18 59 1
51 8 -3 22 -9 30 -12 17 -7 22 31 5 41 -16 10 -11 28 6 21 12 -4 15 -2 10 9
-14 39 28 61 55 29z m-821 -50 c0 -17 -22 -14 -28 4 -2 7 3 12 12 12 9 0 16
-7 16 -16z m560 8 c0 -13 -12 -22 -22 -16 -10 6 -1 24 13 24 5 0 9 -4 9 -8z
m-750 -31 c14 -27 13 -31 -8 -31 -10 0 -23 -5 -30 -12 -16 -16 -15 1 1 35 14
32 23 34 37 8z m43 -53 c7 -11 4 -21 -10 -35 -21 -21 -21 -21 -38 -1 -15 19
-15 21 1 39 19 21 33 21 47 -3z m845 -10 c17 -17 15 -48 -4 -55 -9 -3 -24 3
-37 15 -17 17 -18 23 -7 36 15 19 32 20 48 4z m-808 -15 c-1 -15 -39 -58 -46
-51 -8 9 22 58 36 58 6 0 10 -3 10 -7z m760 -38 c13 -14 20 -26 17 -26 -4 -1
-12 -2 -17 -3 -6 0 -15 -8 -20 -16 -9 -15 -8 -17 -25 36 -5 17 1 34 14 34 4 0
18 -11 31 -25z m-724 -17 c-7 -36 -17 -49 -23 -30 -3 6 -11 12 -19 12 -18 0
-18 9 3 32 27 30 47 23 39 -14z m669 -14 c9 -14 15 -26 13 -27 -2 -1 -12 -7
-24 -13 -17 -10 -22 -9 -32 7 -20 32 -13 54 19 58 4 1 14 -11 24 -25z m-577
-17 c2 -12 -1 -15 -12 -11 -9 3 -16 1 -16 -5 0 -6 5 -11 10 -11 6 0 10 -4 10
-10 0 -16 -37 -11 -44 6 -8 22 12 56 32 52 9 -2 18 -11 20 -21z m510 -23 l1
-36 -24 27 c-27 28 -25 45 4 45 13 0 18 -9 19 -36z m-468 17 c0 -5 -4 -22 -10
-36 -14 -37 -32 -22 -18 15 9 28 28 42 28 21z m49 -10 c11 -7 11 -13 0 -32 -7
-13 -12 -26 -11 -29 1 -5 -30 -1 -36 5 -2 2 -1 17 3 34 7 31 19 38 44 22z
m331 -29 c0 -16 -3 -32 -6 -35 -6 -6 -44 34 -44 46 0 5 21 12 43 16 4 0 7 -12
7 -27z m-260 -14 c0 -28 -14 -45 -25 -29 -3 6 -12 8 -20 4 -9 -3 -15 1 -15 10
0 30 12 45 36 43 19 -1 24 -6 24 -28z m60 17 c10 -12 10 -15 -4 -15 -9 0 -16
-5 -16 -11 0 -5 5 -7 10 -4 6 3 10 -1 10 -9 0 -21 -18 -30 -35 -16 -18 15 -19
42 -3 58 16 16 23 15 38 -3z m110 -36 c0 -11 -8 -16 -25 -16 -19 0 -25 5 -25
21 0 12 6 28 12 34 10 10 15 9 25 -5 7 -9 13 -24 13 -34z m-70 11 c0 -16 -4
-30 -10 -30 -5 0 -10 14 -10 30 0 17 5 30 10 30 6 0 10 -13 10 -30z"/>
<path d="M5257 6469 l-27 -21 32 -46 c18 -26 34 -49 35 -51 1 -2 9 2 18 9 12
10 13 15 3 28 -11 13 -9 14 13 9 18 -5 31 -2 39 8 10 12 7 15 -14 21 -15 3
-26 13 -26 23 0 19 -19 41 -34 41 -6 0 -23 -10 -39 -21z m41 -28 c3 -8 -1 -12
-9 -9 -7 2 -15 10 -17 17 -3 8 1 12 9 9 7 -2 15 -10 17 -17z"/>
<path d="M6285 6435 c-14 -13 -25 -33 -25 -45 0 -27 35 -60 64 -60 51 0 76 85
34 114 -31 22 -45 20 -73 -9z m75 -20 c0 -18 -43 -65 -60 -65 -17 0 -11 39 10
60 24 24 50 26 50 5z"/>
<path d="M5160 6385 l-24 -26 42 -41 42 -42 29 28 c17 16 28 33 25 38 -9 15
-22 9 -27 -14 -5 -18 -8 -19 -22 -8 -11 9 -12 15 -5 20 7 5 6 11 -5 20 -12 10
-15 10 -15 -1 0 -10 -2 -11 -12 0 -11 10 -10 15 5 25 20 16 22 26 4 26 -8 0
-24 -11 -37 -25z"/>
<path d="M6405 6356 c-11 -12 -31 -29 -44 -38 -13 -9 -20 -21 -16 -28 4 -7 14
-2 27 15 36 45 43 30 21 -47 -2 -10 0 -18 5 -18 17 0 93 68 83 74 -5 3 -14 -1
-21 -9 -20 -24 -26 -18 -22 24 5 47 -7 57 -33 27z"/>
<path d="M5100 6315 c0 -3 7 -17 16 -31 21 -31 15 -38 -21 -24 -27 10 -44 2
-45 -21 0 -8 110 -32 117 -25 3 3 -6 24 -21 46 -14 22 -26 44 -26 50 0 5 -4
10 -10 10 -5 0 -10 -2 -10 -5z"/>
<path d="M6447 6242 c-34 -38 -9 -102 39 -102 30 0 64 29 64 53 0 58 -67 89
-103 49z m83 -26 c0 -18 -38 -46 -62 -46 -25 0 -22 26 4 44 28 20 58 21 58 2z"/>
<path d="M5017 6193 c-12 -11 -8 -33 6 -33 7 0 29 -11 49 -25 34 -23 38 -24
47 -8 8 14 1 22 -40 45 -53 31 -53 31 -62 21z"/>
<path d="M4940 5985 c0 -10 10 -15 28 -15 34 0 68 -23 58 -39 -4 -6 -15 -10
-24 -7 -66 18 -82 18 -82 -2 0 -17 9 -21 52 -27 43 -6 54 -5 65 11 7 10 13 23
13 30 0 19 -29 44 -51 44 -11 0 -29 5 -40 10 -15 8 -19 7 -19 -5z"/>
<path d="M6530 5961 c0 -6 9 -11 20 -11 24 0 27 -25 4 -38 -12 -7 -14 -14 -7
-26 8 -15 14 -13 54 15 24 18 46 34 48 36 11 9 -19 22 -66 28 -36 5 -53 3 -53
-4z"/>
<path d="M6386 5254 c-4 -13 -11 -24 -16 -24 -6 0 -10 -7 -10 -15 0 -8 -9 -19
-20 -25 -12 -6 -20 -21 -20 -36 0 -14 -9 -37 -20 -51 -48 -61 2 -96 65 -46 53
41 123 143 127 184 l3 34 -52 2 c-47 1 -52 -1 -57 -23z m70 -20 c-24 -17 -49
-18 -44 -2 5 13 49 28 58 21 3 -3 -4 -11 -14 -19z m-61 -43 c3 -5 1 -12 -5
-16 -5 -3 -10 1 -10 9 0 18 6 21 15 7z m-7 -52 c28 15 32 14 26 -4 -4 -8 -15
-15 -27 -15 -11 0 -32 -10 -45 -22 -14 -13 -22 -18 -19 -12 4 6 11 24 17 40 8
20 13 25 19 15 7 -10 13 -10 29 -2z"/>
<path d="M5140 5240 c-6 -11 -20 -20 -30 -20 -26 0 -26 -22 0 -45 11 -10 20
-22 20 -27 0 -16 75 -90 112 -109 46 -24 44 -24 64 6 15 23 15 26 -7 54 -13
16 -32 41 -42 55 -10 14 -23 26 -30 26 -7 0 -22 18 -35 40 -25 45 -36 49 -52
20z m30 -45 c0 -9 -9 -15 -22 -15 -21 0 -21 0 -2 15 24 18 24 18 24 0z m27
-62 c-3 -3 -11 -2 -17 2 -9 6 -9 10 1 16 14 8 27 -7 16 -18z m66 -51 l7 -32
-31 16 c-23 11 -28 19 -20 27 6 6 11 22 11 36 0 24 1 25 13 6 8 -11 17 -35 20
-53z"/>
<path d="M8400 2975 l0 -175 175 0 175 0 0 175 0 175 -175 0 -175 0 0 -175z"/>
<path d="M8400 9625 l0 -1225 1225 0 1225 0 0 1225 0 1225 -1225 0 -1225 0 0
-1225z m2080 0 l0 -855 -855 0 -855 0 0 855 0 855 855 0 855 0 0 -855z"/>
<path d="M9100 9625 l0 -525 525 0 525 0 0 525 0 525 -525 0 -525 0 0 -525z"/>
<path d="M700 3675 l0 -175 350 0 350 0 0 175 0 175 -350 0 -350 0 0 -175z"/>
<path d="M700 1925 l0 -1225 1225 0 1225 0 0 1225 0 1225 -1225 0 -1225 0 0
-1225z m2080 0 l0 -855 -855 0 -855 0 0 855 0 855 855 0 855 0 0 -855z"/>
<path d="M1400 1925 l0 -525 525 0 525 0 0 525 0 525 -525 0 -525 0 0 -525z"/>
<path d="M9450 1400 l0 -350 -175 0 -175 0 0 175 0 175 -175 0 -175 0 0 -175
0 -175 175 0 175 0 0 -175 0 -175 350 0 350 0 0 525 0 525 -175 0 -175 0 0
-350z"/>
<path d="M3850 875 l0 -175 175 0 175 0 0 175 0 175 -175 0 -175 0 0 -175z"/>
</g>
</svg>
